mtllib materials.mtl
v 0.03166676 0.04833335 -0.00999999
v 0.03166676 0.04833335 0.00999999
v 0.03166676 0.06833333 0.00999999
v 0.03166676 0.06833333 -0.00999999
v -0.02833319 0.04833335 -0.00999999
v -0.02833319 0.06833333 -0.00999999
v -0.02833319 0.06833333 0.00999999
v -0.02833319 0.04833335 0.00999999
v -0.02833343 -0.05166662 -0.00999999
v -0.02833343 -0.05166662 0.00999999
v -0.02833343 0.04833335 0.00999999
v -0.02833343 0.04833335 -0.00999999
v -0.04833341 -0.05166662 -0.00999999
v -0.04833341 0.04833335 -0.00999999
v -0.04833341 0.04833335 0.00999999
v -0.04833341 -0.05166662 0.00999999
v -0.008333206 -0.03166664 -0.00999999
v -0.008333206 -0.03166664 0.00999999
v -0.008333206 -0.01166666 0.00999999
v -0.008333206 -0.01166666 -0.00999999
v -0.02833319 -0.03166664 -0.00999999
v -0.02833319 -0.01166666 -0.00999999
v -0.02833319 -0.01166666 0.00999999
v -0.02833319 -0.03166664 0.00999999
v 0.03166676 -0.05166662 -0.00999999
v 0.03166676 -0.05166662 0.00999999
v 0.03166676 -0.03166664 0.00999999
v 0.03166676 -0.03166664 -0.00999999
v -0.008333206 -0.05166662 -0.00999999
v -0.008333206 -0.03166664 -0.00999999
v -0.008333206 -0.03166664 0.00999999
v -0.008333206 -0.05166662 0.00999999
v 0.05166674 -0.03166664 -0.00999999
v 0.05166674 -0.03166664 0.00999999
v 0.05166674 0.008333325 0.00999999
v 0.05166674 0.008333325 -0.00999999
v 0.03166676 -0.03166664 -0.00999999
v 0.03166676 0.008333325 -0.00999999
v 0.03166676 0.008333325 0.00999999
v 0.03166676 -0.03166664 0.00999999
v 0.03166676 0.008333385 -0.00999999
v 0.03166676 0.008333385 0.00999999
v 0.03166676 0.02833337 0.00999999
v 0.03166676 0.02833337 -0.00999999
v -0.02833319 0.008333385 -0.00999999
v -0.02833319 0.02833337 -0.00999999
v -0.02833319 0.02833337 0.00999999
v -0.02833319 0.008333385 0.00999999
vn 1 0 1.748456E-07
vn -1 0 -1.748456E-07
vn 3.057097E-14 -1 -1.748456E-07
vn -3.057097E-14 1 1.748456E-07
vn 1.748456E-07 1.748456E-07 -1
vn -1.748456E-07 -1.748456E-07 1
vn 1 0 0
vn -1 0 0
vn 0 -1 0
vn 0 1 0
vn 0 0 -1
vn 0 0 1
vn 1 0 0
vn -1 0 0
vn 0 -1 0
vn 0 1 0
vn 0 0 -1
vn 0 0 1
vn 1 0 0
vn -1 0 0
vn 0 -1 0
vn 0 1 0
vn 0 0 -1
vn 0 0 1
vn 1 0 0
vn -1 0 0
vn 0 -1 0
vn 0 1 0
vn 0 0 -1
vn 0 0 1
vn 1 0 0
vn -1 0 0
vn 0 -1 0
vn 0 1 0
vn 0 0 -1
vn 0 0 1
vt 0.0792808 -0.1746039
vt 0.08090827 -0.1757664
vt 0.08207075 -0.1741389
vt 0.08044328 -0.1729765
vt -0.0792808 -0.1746039
vt -0.08044328 -0.1729765
vt -0.08207075 -0.1741389
vt -0.08090827 -0.1757664
vt 0.2656385 0.2502342
vt 0.2636205 0.2445838
vt 0.265504 0.2439111
vt 0.267522 0.2495616
vt -0.2656385 0.2502342
vt -0.267522 0.2495616
vt -0.265504 0.2439111
vt -0.2636205 0.2445838
vt 0.2312094 0.2477564
vt 0.2294206 0.2486508
vt 0.2267373 0.2432843
vt 0.2285261 0.2423898
vt -0.2312094 0.2477564
vt -0.2285261 0.2423898
vt -0.2267373 0.2432843
vt -0.2294206 0.2486508
vt 0.07346851 -0.1827413
vt 0.07509597 -0.1839038
vt 0.08090835 -0.1757664
vt 0.07928089 -0.174604
vt -0.07346851 -0.1827413
vt -0.07928089 -0.174604
vt -0.08090835 -0.1757664
vt -0.07509597 -0.1839038
vt 0.2636205 0.2445838
vt 0.2629478 0.2427003
vt 0.2648313 0.2420277
vt 0.2655039 0.2439111
vt -0.2636205 0.2445838
vt -0.2655039 0.2439111
vt -0.2648313 0.2420277
vt -0.2629478 0.2427003
vt 0.2374704 0.2379176
vt 0.2285261 0.2423898
vt 0.2276317 0.2406009
vt 0.236576 0.2361288
vt -0.2374704 0.2379176
vt -0.236576 0.2361288
vt -0.2276317 0.2406009
vt -0.2285261 0.2423898
vt 0.07463098 -0.1811138
vt 0.07625845 -0.1822763
vt 0.07742093 -0.1806488
vt 0.07579346 -0.1794864
vt -0.07463098 -0.1811138
vt -0.07579346 -0.1794864
vt -0.07742093 -0.1806488
vt -0.07625845 -0.1822763
vt 0.2642931 0.2464673
vt 0.2636205 0.2445838
vt 0.2655039 0.2439112
vt 0.2661766 0.2457947
vt -0.2642931 0.2464673
vt -0.2661766 0.2457947
vt -0.2655039 0.2439112
vt -0.2636205 0.2445838
vt 0.236576 0.2406009
vt 0.2347872 0.2414954
vt 0.2338927 0.2397065
vt 0.2356816 0.2388121
vt -0.236576 0.2406009
vt -0.2356816 0.2388121
vt -0.2338927 0.2397065
vt -0.2347872 0.2414954
vt 0.07346851 -0.1827413
vt 0.07509597 -0.1839038
vt 0.07625845 -0.1822763
vt 0.07463098 -0.1811138
vt -0.07346851 -0.1827413
vt -0.07463098 -0.1811138
vt -0.07625845 -0.1822763
vt -0.07509597 -0.1839038
vt 0.2656385 0.2502343
vt 0.2642931 0.2464673
vt 0.2661766 0.2457947
vt 0.267522 0.2495616
vt -0.2656385 0.2502343
vt -0.267522 0.2495616
vt -0.2661766 0.2457947
vt -0.2642931 0.2464673
vt 0.2401537 0.2432842
vt 0.2383649 0.2441786
vt 0.236576 0.2406009
vt 0.2383649 0.2397065
vt -0.2401537 0.2432842
vt -0.2383649 0.2397065
vt -0.236576 0.2406009
vt -0.2383649 0.2441786
vt 0.07463098 -0.1811138
vt 0.07625845 -0.1822763
vt 0.0785834 -0.1790214
vt 0.07695593 -0.1778589
vt -0.07463098 -0.1811138
vt -0.07695593 -0.1778589
vt -0.0785834 -0.1790214
vt -0.07625845 -0.1822763
vt 0.2663112 0.2521178
vt 0.2656385 0.2502343
vt 0.267522 0.2495616
vt 0.2681946 0.2514451
vt -0.2663112 0.2521178
vt -0.2681946 0.2514451
vt -0.267522 0.2495616
vt -0.2656385 0.2502343
vt 0.2392593 0.2459675
vt 0.2356816 0.2477563
vt 0.2347872 0.2459675
vt 0.2383649 0.2441786
vt -0.2392593 0.2459675
vt -0.2383649 0.2441786
vt -0.2347872 0.2459675
vt -0.2356816 0.2477563
vt 0.07695594 -0.1778589
vt 0.0785834 -0.1790214
vt 0.07974587 -0.1773939
vt 0.07811841 -0.1762314
vt -0.07695594 -0.1778589
vt -0.07811841 -0.1762314
vt -0.07974587 -0.1773939
vt -0.0785834 -0.1790214
vt 0.2656385 0.2502343
vt 0.2636205 0.2445838
vt 0.2655039 0.2439112
vt 0.267522 0.2495616
vt -0.2656385 0.2502343
vt -0.267522 0.2495616
vt -0.2655039 0.2439112
vt -0.2636205 0.2445838
vt 0.2347872 0.2459675
vt 0.2329983 0.2468619
vt 0.230315 0.2414954
vt 0.2321039 0.2406009
vt -0.2347872 0.2459675
vt -0.2321039 0.2406009
vt -0.230315 0.2414954
vt -0.2329983 0.2468619
o group1982680074
g mesh1982680074
usemtl mat21
f 4/4/1 3/3/1 2/2/1 1/1/1
f 8/8/2 7/7/2 6/6/2 5/5/2
f 2/12/3 8/11/3 5/10/3 1/9/3
f 6/16/4 7/15/4 3/14/4 4/13/4
f 5/20/5 6/19/5 4/18/5 1/17/5
f 3/24/6 7/23/6 8/22/6 2/21/6
o group1748409012
g mesh1748409012
usemtl mat21
f 12/28/7 11/27/7 10/26/7 9/25/7
f 16/32/8 15/31/8 14/30/8 13/29/8
f 10/36/9 16/35/9 13/34/9 9/33/9
f 14/40/10 15/39/10 11/38/10 12/37/10
f 13/44/11 14/43/11 12/42/11 9/41/11
f 11/48/12 15/47/12 16/46/12 10/45/12
o group1696423595
g mesh1696423595
usemtl mat21
f 20/52/13 19/51/13 18/50/13 17/49/13
f 24/56/14 23/55/14 22/54/14 21/53/14
f 18/60/15 24/59/15 21/58/15 17/57/15
f 22/64/16 23/63/16 19/62/16 20/61/16
f 21/68/17 22/67/17 20/66/17 17/65/17
f 19/72/18 23/71/18 24/70/18 18/69/18
o group183511681
g mesh183511681
usemtl mat21
f 28/76/19 27/75/19 26/74/19 25/73/19
f 32/80/20 31/79/20 30/78/20 29/77/20
f 26/84/21 32/83/21 29/82/21 25/81/21
f 30/88/22 31/87/22 27/86/22 28/85/22
f 29/92/23 30/91/23 28/90/23 25/89/23
f 27/96/24 31/95/24 32/94/24 26/93/24
o group631259503
g mesh631259503
usemtl mat21
f 36/100/25 35/99/25 34/98/25 33/97/25
f 40/104/26 39/103/26 38/102/26 37/101/26
f 34/108/27 40/107/27 37/106/27 33/105/27
f 38/112/28 39/111/28 35/110/28 36/109/28
f 37/116/29 38/115/29 36/114/29 33/113/29
f 35/120/30 39/119/30 40/118/30 34/117/30
o group328795919
g mesh328795919
usemtl mat21
f 44/124/31 43/123/31 42/122/31 41/121/31
f 48/128/32 47/127/32 46/126/32 45/125/32
f 42/132/33 48/131/33 45/130/33 41/129/33
f 46/136/34 47/135/34 43/134/34 44/133/34
f 45/140/35 46/139/35 44/138/35 41/137/35
f 43/144/36 47/143/36 48/142/36 42/141/36
