mtllib materials.mtl
v -0.02000022 0.08333313 -0.009999931
v -0.02000022 0.08333313 0.01000005
v -2.384186E-07 0.08333313 0.01000005
v -2.384186E-07 0.08333313 -0.009999931
v -0.02000022 0.1033331 -0.009999931
v -2.384186E-07 0.1033331 -0.009999931
v -2.384186E-07 0.1033331 0.01000005
v -0.02000022 0.1033331 0.01000005
v 0.03999972 -0.09666681 -0.009999931
v 0.03999972 -0.09666681 0.01000005
v 0.03999972 -0.07666683 0.01000005
v 0.03999972 -0.07666683 -0.009999931
v -2.384186E-07 -0.09666681 -0.009999931
v -2.384186E-07 -0.07666683 -0.009999931
v -2.384186E-07 -0.07666683 0.01000005
v -2.384186E-07 -0.09666681 0.01000005
v -2.384186E-07 -0.07666683 -0.009999931
v -2.384186E-07 -0.07666683 0.01000005
v -2.384186E-07 0.06333327 0.01000005
v -2.384186E-07 0.06333327 -0.009999931
v -0.02000022 -0.07666683 -0.009999931
v -0.02000022 0.06333327 -0.009999931
v -0.02000022 0.06333327 0.01000005
v -0.02000022 -0.07666683 0.01000005
vn -1.192093E-07 -1 -1.748456E-07
vn 1.192093E-07 1 1.748456E-07
vn -1 1.192093E-07 -1.748456E-07
vn 1 -1.192093E-07 1.748456E-07
vn 1.748456E-07 1.748456E-07 -1
vn -1.748456E-07 -1.748456E-07 1
vn 1 0 0
vn -1 0 0
vn 0 -1 0
vn 0 1 0
vn 0 0 -1
vn 0 0 1
vn 1 0 0
vn -1 0 0
vn 0 -1 0
vn 0 1 0
vn 0 0 -1
vn 0 0 1
vt 0.1724733 0.2123628
vt 0.1743568 0.2116901
vt 0.1750295 0.2135736
vt 0.173146 0.2142463
vt -0.1724733 0.2123628
vt -0.173146 0.2142463
vt -0.1750295 0.2135736
vt -0.1743568 0.2116901
vt 0.01662346 -0.1798351
vt 0.01546098 -0.1782076
vt 0.01383352 -0.17937
vt 0.01499599 -0.1809975
vt -0.01662346 -0.1798351
vt -0.01499599 -0.1809975
vt -0.01383352 -0.17937
vt -0.01546098 -0.1782076
vt 0.2549117 0.1609969
vt 0.2558061 0.1627858
vt 0.2540173 0.1636802
vt 0.2531229 0.1618914
vt -0.2549117 0.1609969
vt -0.2531229 0.1618914
vt -0.2540173 0.1636802
vt -0.2558061 0.1627858
vt -0.02708571 -0.1944823
vt -0.02545824 -0.1956448
vt -0.02429576 -0.1940173
vt -0.02592323 -0.1928548
vt 0.02708571 -0.1944823
vt 0.02592323 -0.1928548
vt 0.02429576 -0.1940173
vt 0.02545824 -0.1956448
vt 0.1744913 0.2180132
vt 0.173146 0.2142463
vt 0.1750295 0.2135736
vt 0.1763748 0.2173406
vt -0.1744913 0.2180132
vt -0.1763748 0.2173406
vt -0.1750295 0.2135736
vt -0.173146 0.2142463
vt 0.2736947 0.1583136
vt 0.2719059 0.159208
vt 0.270117 0.1556303
vt 0.2719059 0.1547359
vt -0.2736947 0.1583136
vt -0.2719059 0.1547359
vt -0.270117 0.1556303
vt -0.2719059 0.159208
vt -0.02592323 -0.1928548
vt -0.02429576 -0.1940173
vt -0.01615842 -0.182625
vt -0.01778589 -0.1814626
vt 0.02592323 -0.1928548
vt 0.01778589 -0.1814626
vt 0.01615842 -0.182625
vt 0.02429576 -0.1940173
vt 0.173146 0.2142463
vt 0.1724733 0.2123628
vt 0.1743568 0.2116901
vt 0.1750295 0.2135736
vt -0.173146 0.2142463
vt -0.1750295 0.2135736
vt -0.1743568 0.2116901
vt -0.1724733 0.2123628
vt 0.270117 0.1556303
vt 0.257595 0.1618913
vt 0.2567006 0.1601025
vt 0.2692226 0.1538415
vt -0.270117 0.1556303
vt -0.2692226 0.1538415
vt -0.2567006 0.1601025
vt -0.257595 0.1618913
o group1755556687
g mesh1755556687
usemtl mat21
f 4/4/1 3/3/1 2/2/1 1/1/1
f 8/8/2 7/7/2 6/6/2 5/5/2
f 2/12/3 8/11/3 5/10/3 1/9/3
f 6/16/4 7/15/4 3/14/4 4/13/4
f 5/20/5 6/19/5 4/18/5 1/17/5
f 3/24/6 7/23/6 8/22/6 2/21/6
o group1534480127
g mesh1534480127
usemtl mat21
f 12/28/7 11/27/7 10/26/7 9/25/7
f 16/32/8 15/31/8 14/30/8 13/29/8
f 10/36/9 16/35/9 13/34/9 9/33/9
f 14/40/10 15/39/10 11/38/10 12/37/10
f 13/44/11 14/43/11 12/42/11 9/41/11
f 11/48/12 15/47/12 16/46/12 10/45/12
o group1496895289
g mesh1496895289
usemtl mat21
f 20/52/13 19/51/13 18/50/13 17/49/13
f 24/56/14 23/55/14 22/54/14 21/53/14
f 18/60/15 24/59/15 21/58/15 17/57/15
f 22/64/16 23/63/16 19/62/16 20/61/16
f 21/68/17 22/67/17 20/66/17 17/65/17
f 19/72/18 23/71/18 24/70/18 18/69/18
